<svg xmlns="http://www.w3.org/2000/svg" xmlns:xlink="http://www.w3.org/1999/xlink" width="1920" zoomAndPan="magnify" viewBox="0 0 1440 809.999993" height="1080" preserveAspectRatio="xMidYMid meet" version="1.0"><defs><g/><clipPath id="3d693087b7"><path d="M 280.410156 343.042969 L 379.410156 343.042969 L 379.410156 428.402344 L 280.410156 428.402344 Z M 280.410156 343.042969 " clip-rule="nonzero"/></clipPath><clipPath id="91417a5307"><path d="M 379.738281 385.722656 L 354.90625 428.402344 L 305.242188 428.402344 L 280.410156 385.722656 L 305.242188 343.042969 L 354.90625 343.042969 Z M 379.738281 385.722656 " clip-rule="nonzero"/></clipPath><clipPath id="1062103d56"><path d="M 201.566406 387.539062 L 300.566406 387.539062 L 300.566406 472.898438 L 201.566406 472.898438 Z M 201.566406 387.539062 " clip-rule="nonzero"/></clipPath><clipPath id="b889936081"><path d="M 300.894531 430.21875 L 276.0625 472.898438 L 226.398438 472.898438 L 201.566406 430.21875 L 226.398438 387.539062 L 276.0625 387.539062 Z M 300.894531 430.21875 " clip-rule="nonzero"/></clipPath><clipPath id="e051dc1973"><path d="M 280.410156 431.722656 L 379.410156 431.722656 L 379.410156 517.082031 L 280.410156 517.082031 Z M 280.410156 431.722656 " clip-rule="nonzero"/></clipPath><clipPath id="1ea6708c8e"><path d="M 379.738281 474.402344 L 354.90625 517.082031 L 305.242188 517.082031 L 280.410156 474.402344 L 305.242188 431.722656 L 354.90625 431.722656 Z M 379.738281 474.402344 " clip-rule="nonzero"/></clipPath></defs><g clip-path="url(#3d693087b7)"><g clip-path="url(#91417a5307)"><path stroke-linecap="butt" transform="matrix(0.75, 0, 0, 0.75, 280.41046, 343.041596)" fill="none" stroke-linejoin="miter" d="M 132.437093 56.90808 L 99.327718 113.814329 L 33.108969 113.814329 L -0.000405154 56.90808 L 33.108969 0.00183094 L 99.327718 0.00183094 Z M 132.437093 56.90808 " stroke="#000000" stroke-width="22" stroke-opacity="1" stroke-miterlimit="4"/></g></g><g clip-path="url(#1062103d56)"><g clip-path="url(#b889936081)"><path stroke-linecap="butt" transform="matrix(0.75, 0, 0, 0.75, 201.566715, 387.539883)" fill="none" stroke-linejoin="miter" d="M 132.437086 56.905155 L 99.327712 113.811405 L 33.108963 113.811405 L -0.000412042 56.905155 L 33.108963 -0.00109387 L 99.327712 -0.00109387 Z M 132.437086 56.905155 " stroke="#000000" stroke-width="22" stroke-opacity="1" stroke-miterlimit="4"/></g></g><g clip-path="url(#e051dc1973)"><g clip-path="url(#1ea6708c8e)"><path stroke-linecap="butt" transform="matrix(0.75, 0, 0, 0.75, 280.41046, 431.722654)" fill="none" stroke-linejoin="miter" d="M 132.437093 56.906252 L 99.327718 113.812501 L 33.108969 113.812501 L -0.000405154 56.906252 L 33.108969 0.00000262584 L 99.327718 0.00000262584 Z M 132.437093 56.906252 " stroke="#000000" stroke-width="22" stroke-opacity="1" stroke-miterlimit="4"/></g></g><g fill="#000000" fill-opacity="1"><g transform="translate(429.923216, 462.374997)"><g><path d="M 90.9375 0 L 86.015625 -16.484375 L 45.046875 -16.484375 L 40.109375 0 L 1.703125 0 L 44.359375 -116.953125 L 88.046875 -116.953125 L 130.71875 0 Z M 52.859375 -42.671875 L 78.1875 -42.671875 L 65.953125 -84.3125 L 65.28125 -84.3125 Z M 52.859375 -42.671875 "/></g></g></g><g fill="#000000" fill-opacity="1"><g transform="translate(557.74829, 462.374997)"><g><path d="M 14.28125 0 L 14.28125 -116.953125 L 51.84375 -116.953125 L 51.84375 0 Z M 14.28125 0 "/></g></g></g><g fill="#000000" fill-opacity="1"><g transform="translate(619.45095, 462.374997)"><g/></g></g><g fill="#000000" fill-opacity="1"><g transform="translate(671.63469, 462.374997)"><g><path d="M 91.453125 0 L 91.453125 -44.359375 L 50.140625 -44.359375 L 50.140625 0 L 12.578125 0 L 12.578125 -116.953125 L 50.140625 -116.953125 L 50.140625 -74.28125 L 91.453125 -74.28125 L 91.453125 -116.953125 L 129.015625 -116.953125 L 129.015625 0 Z M 91.453125 0 "/></g></g></g><g fill="#000000" fill-opacity="1"><g transform="translate(808.808693, 462.374997)"><g><path d="M 14.28125 0 L 14.28125 -116.953125 L 51.84375 -116.953125 L 51.84375 0 Z M 14.28125 0 "/></g></g></g><g fill="#000000" fill-opacity="1"><g transform="translate(870.511388, 462.374997)"><g><path d="M 44.359375 0 L 2.890625 -116.953125 L 43 -116.953125 L 66.46875 -38.75 L 67.140625 -38.75 L 90.765625 -116.953125 L 129.1875 -116.953125 L 87.875 0 Z M 44.359375 0 "/></g></g></g><g fill="#000000" fill-opacity="1"><g transform="translate(998.336439, 462.374997)"><g><path d="M 12.578125 -116.953125 L 113.71875 -116.953125 L 113.71875 -88.90625 L 50.140625 -88.90625 L 50.140625 -72.75 L 104.546875 -72.75 L 104.546875 -45.890625 L 50.140625 -45.890625 L 50.140625 -28.046875 L 114.90625 -28.046875 L 114.90625 0 L 12.578125 0 Z M 12.578125 -116.953125 "/></g></g></g><g fill="#000000" fill-opacity="1"><g transform="translate(430.942021, 510.155418)"><g><path d="M 22.640625 -2.484375 L 22.640625 0 L 3.5625 0 L 3.5625 -28.40625 L 22.28125 -28.40625 L 22.28125 -25.921875 L 6.359375 -25.921875 L 6.359375 -15.6875 L 20.234375 -15.6875 L 20.234375 -13.3125 L 6.359375 -13.3125 L 6.359375 -2.484375 Z M 22.640625 -2.484375 "/></g></g></g><g fill="#000000" fill-opacity="1"><g transform="translate(464.659587, 510.155418)"><g><path d="M 3.40625 -28.40625 L 12.6875 -16.046875 L 21.921875 -28.40625 L 25.078125 -28.40625 L 14.203125 -14 L 24.765625 0 L 21.59375 0 L 12.6875 -11.953125 L 3.71875 0 L 0.515625 0 L 11.078125 -14 L 0.203125 -28.40625 Z M 3.40625 -28.40625 "/></g></g></g><g fill="#000000" fill-opacity="1"><g transform="translate(499.297063, 510.155418)"><g><path d="M 3.5625 0 L 3.5625 -28.40625 L 15.3125 -28.40625 C 16.539062 -28.40625 17.664062 -28.148438 18.6875 -27.640625 C 19.71875 -27.128906 20.609375 -26.441406 21.359375 -25.578125 C 22.109375 -24.710938 22.695312 -23.753906 23.125 -22.703125 C 23.550781 -21.648438 23.765625 -20.578125 23.765625 -19.484375 C 23.765625 -17.929688 23.421875 -16.46875 22.734375 -15.09375 C 22.054688 -13.726562 21.101562 -12.617188 19.875 -11.765625 C 18.65625 -10.910156 17.21875 -10.484375 15.5625 -10.484375 L 6.359375 -10.484375 L 6.359375 0 Z M 6.359375 -12.953125 L 15.4375 -12.953125 C 16.5625 -12.953125 17.535156 -13.257812 18.359375 -13.875 C 19.179688 -14.488281 19.816406 -15.289062 20.265625 -16.28125 C 20.722656 -17.269531 20.953125 -18.335938 20.953125 -19.484375 C 20.953125 -20.648438 20.6875 -21.726562 20.15625 -22.71875 C 19.625 -23.707031 18.925781 -24.488281 18.0625 -25.0625 C 17.195312 -25.632812 16.242188 -25.921875 15.203125 -25.921875 L 6.359375 -25.921875 Z M 6.359375 -12.953125 "/></g></g></g><g fill="#000000" fill-opacity="1"><g transform="translate(533.53458, 510.155418)"><g><path d="M 3.5625 0 L 3.5625 -28.40625 L 6.359375 -28.40625 L 6.359375 -2.484375 L 22.765625 -2.484375 L 22.765625 0 Z M 3.5625 0 "/></g></g></g><g fill="#000000" fill-opacity="1"><g transform="translate(565.052316, 510.155418)"><g><path d="M 15 0.203125 C 13 0.203125 11.1875 -0.195312 9.5625 -1 C 7.9375 -1.800781 6.535156 -2.882812 5.359375 -4.25 C 4.179688 -5.625 3.273438 -7.171875 2.640625 -8.890625 C 2.003906 -10.617188 1.6875 -12.390625 1.6875 -14.203125 C 1.6875 -16.097656 2.019531 -17.90625 2.6875 -19.625 C 3.351562 -21.34375 4.289062 -22.875 5.5 -24.21875 C 6.707031 -25.5625 8.125 -26.625 9.75 -27.40625 C 11.382812 -28.195312 13.148438 -28.59375 15.046875 -28.59375 C 17.046875 -28.59375 18.859375 -28.179688 20.484375 -27.359375 C 22.109375 -26.535156 23.5 -25.425781 24.65625 -24.03125 C 25.820312 -22.644531 26.722656 -21.097656 27.359375 -19.390625 C 27.992188 -17.691406 28.3125 -15.945312 28.3125 -14.15625 C 28.3125 -12.257812 27.976562 -10.453125 27.3125 -8.734375 C 26.644531 -7.015625 25.710938 -5.484375 24.515625 -4.140625 C 23.316406 -2.796875 21.90625 -1.734375 20.28125 -0.953125 C 18.65625 -0.179688 16.894531 0.203125 15 0.203125 Z M 4.484375 -14.203125 C 4.484375 -12.648438 4.734375 -11.160156 5.234375 -9.734375 C 5.742188 -8.304688 6.460938 -7.039062 7.390625 -5.9375 C 8.328125 -4.832031 9.441406 -3.953125 10.734375 -3.296875 C 12.035156 -2.640625 13.457031 -2.3125 15 -2.3125 C 16.625 -2.3125 18.082031 -2.648438 19.375 -3.328125 C 20.664062 -4.015625 21.769531 -4.925781 22.6875 -6.0625 C 23.613281 -7.195312 24.316406 -8.46875 24.796875 -9.875 C 25.273438 -11.289062 25.515625 -12.734375 25.515625 -14.203125 C 25.515625 -15.742188 25.257812 -17.222656 24.75 -18.640625 C 24.25 -20.054688 23.523438 -21.320312 22.578125 -22.4375 C 21.628906 -23.5625 20.515625 -24.441406 19.234375 -25.078125 C 17.953125 -25.722656 16.539062 -26.046875 15 -26.046875 C 13.394531 -26.046875 11.945312 -25.710938 10.65625 -25.046875 C 9.363281 -24.378906 8.253906 -23.476562 7.328125 -22.34375 C 6.410156 -21.207031 5.707031 -19.929688 5.21875 -18.515625 C 4.726562 -17.109375 4.484375 -15.671875 4.484375 -14.203125 Z M 4.484375 -14.203125 "/></g></g></g><g fill="#000000" fill-opacity="1"><g transform="translate(604.449322, 510.155418)"><g><path d="M 3.5625 0 L 3.5625 -28.40625 L 15.5625 -28.40625 C 16.789062 -28.40625 17.910156 -28.148438 18.921875 -27.640625 C 19.929688 -27.128906 20.816406 -26.441406 21.578125 -25.578125 C 22.335938 -24.710938 22.921875 -23.753906 23.328125 -22.703125 C 23.742188 -21.648438 23.953125 -20.578125 23.953125 -19.484375 C 23.953125 -18.117188 23.691406 -16.835938 23.171875 -15.640625 C 22.660156 -14.441406 21.929688 -13.425781 20.984375 -12.59375 C 20.035156 -11.769531 18.921875 -11.222656 17.640625 -10.953125 L 24.59375 0 L 21.4375 0 L 14.765625 -10.484375 L 6.359375 -10.484375 L 6.359375 0 Z M 6.359375 -12.953125 L 15.640625 -12.953125 C 16.753906 -12.953125 17.722656 -13.257812 18.546875 -13.875 C 19.378906 -14.488281 20.019531 -15.296875 20.46875 -16.296875 C 20.925781 -17.296875 21.15625 -18.359375 21.15625 -19.484375 C 21.15625 -20.628906 20.894531 -21.6875 20.375 -22.65625 C 19.851562 -23.632812 19.160156 -24.421875 18.296875 -25.015625 C 17.429688 -25.617188 16.46875 -25.921875 15.40625 -25.921875 L 6.359375 -25.921875 Z M 6.359375 -12.953125 "/></g></g></g><g fill="#000000" fill-opacity="1"><g transform="translate(639.926714, 510.155418)"><g><path d="M 22.640625 -2.484375 L 22.640625 0 L 3.5625 0 L 3.5625 -28.40625 L 22.28125 -28.40625 L 22.28125 -25.921875 L 6.359375 -25.921875 L 6.359375 -15.6875 L 20.234375 -15.6875 L 20.234375 -13.3125 L 6.359375 -13.3125 L 6.359375 -2.484375 Z M 22.640625 -2.484375 "/></g></g></g><g fill="#000000" fill-opacity="1"><g transform="translate(673.64428, 510.155418)"><g><path d="M 2.59375 0 L 2.59375 -3.921875 L 4.953125 -3.921875 L 4.953125 0 Z M 2.59375 0 "/></g></g></g><g fill="#000000" fill-opacity="1"><g transform="translate(690.563499, 510.155418)"><g/></g></g><g fill="#000000" fill-opacity="1"><g transform="translate(710.122481, 510.155418)"><g><path d="M 24.921875 -7.3125 C 24.921875 -5.90625 24.5625 -4.644531 23.84375 -3.53125 C 23.125 -2.425781 22.15625 -1.5625 20.9375 -0.9375 C 19.726562 -0.3125 18.398438 0 16.953125 0 L 3.5625 0 L 3.5625 -28.40625 L 17.234375 -28.40625 C 18.566406 -28.40625 19.71875 -28.050781 20.6875 -27.34375 C 21.664062 -26.632812 22.414062 -25.722656 22.9375 -24.609375 C 23.457031 -23.503906 23.71875 -22.351562 23.71875 -21.15625 C 23.71875 -19.75 23.359375 -18.441406 22.640625 -17.234375 C 21.921875 -16.035156 20.921875 -15.144531 19.640625 -14.5625 C 21.265625 -14.082031 22.550781 -13.1875 23.5 -11.875 C 24.445312 -10.570312 24.921875 -9.050781 24.921875 -7.3125 Z M 22.125 -7.796875 C 22.125 -8.753906 21.910156 -9.640625 21.484375 -10.453125 C 21.054688 -11.273438 20.472656 -11.9375 19.734375 -12.4375 C 19.003906 -12.945312 18.171875 -13.203125 17.234375 -13.203125 L 6.359375 -13.203125 L 6.359375 -2.4375 L 16.953125 -2.4375 C 17.921875 -2.4375 18.789062 -2.6875 19.5625 -3.1875 C 20.332031 -3.695312 20.953125 -4.359375 21.421875 -5.171875 C 21.890625 -5.992188 22.125 -6.867188 22.125 -7.796875 Z M 6.359375 -25.953125 L 6.359375 -15.484375 L 16.125 -15.484375 C 17.050781 -15.484375 17.875 -15.726562 18.59375 -16.21875 C 19.320312 -16.707031 19.894531 -17.351562 20.3125 -18.15625 C 20.738281 -18.957031 20.953125 -19.8125 20.953125 -20.71875 C 20.953125 -21.675781 20.753906 -22.546875 20.359375 -23.328125 C 19.960938 -24.117188 19.414062 -24.753906 18.71875 -25.234375 C 18.03125 -25.710938 17.242188 -25.953125 16.359375 -25.953125 Z M 6.359375 -25.953125 "/></g></g></g><g fill="#000000" fill-opacity="1"><g transform="translate(746.119824, 510.155418)"><g><path d="M 15.125 0.203125 C 12.882812 0.203125 10.988281 -0.195312 9.4375 -1 C 7.894531 -1.800781 6.671875 -2.875 5.765625 -4.21875 C 4.859375 -5.5625 4.195312 -7.085938 3.78125 -8.796875 C 3.363281 -10.503906 3.15625 -12.265625 3.15625 -14.078125 L 3.15625 -28.40625 L 5.921875 -28.40625 L 5.921875 -14.078125 C 5.921875 -12.609375 6.070312 -11.164062 6.375 -9.75 C 6.6875 -8.34375 7.1875 -7.078125 7.875 -5.953125 C 8.570312 -4.835938 9.503906 -3.953125 10.671875 -3.296875 C 11.847656 -2.640625 13.316406 -2.3125 15.078125 -2.3125 C 16.890625 -2.3125 18.390625 -2.648438 19.578125 -3.328125 C 20.765625 -4.015625 21.695312 -4.914062 22.375 -6.03125 C 23.0625 -7.15625 23.550781 -8.414062 23.84375 -9.8125 C 24.132812 -11.21875 24.28125 -12.640625 24.28125 -14.078125 L 24.28125 -28.40625 L 27.078125 -28.40625 L 27.078125 -14.078125 C 27.078125 -12.179688 26.863281 -10.367188 26.4375 -8.640625 C 26.007812 -6.910156 25.320312 -5.390625 24.375 -4.078125 C 23.425781 -2.773438 22.191406 -1.734375 20.671875 -0.953125 C 19.160156 -0.179688 17.3125 0.203125 15.125 0.203125 Z M 15.125 0.203125 "/></g></g></g><g fill="#000000" fill-opacity="1"><g transform="translate(785.676806, 510.155418)"><g><path d="M 3.5625 0 L 3.5625 -28.40625 L 6.359375 -28.40625 L 6.359375 0 Z M 3.5625 0 "/></g></g></g><g fill="#000000" fill-opacity="1"><g transform="translate(804.955796, 510.155418)"><g><path d="M 3.5625 0 L 3.5625 -28.40625 L 6.359375 -28.40625 L 6.359375 -2.484375 L 22.765625 -2.484375 L 22.765625 0 Z M 3.5625 0 "/></g></g></g><g fill="#000000" fill-opacity="1"><g transform="translate(837.633483, 510.155418)"><g><path d="M 3.5625 0 L 3.5625 -28.40625 L 13.203125 -28.40625 C 16.210938 -28.40625 18.722656 -27.769531 20.734375 -26.5 C 22.753906 -25.226562 24.269531 -23.519531 25.28125 -21.375 C 26.289062 -19.226562 26.796875 -16.847656 26.796875 -14.234375 C 26.796875 -11.359375 26.242188 -8.851562 25.140625 -6.71875 C 24.035156 -4.582031 22.460938 -2.925781 20.421875 -1.75 C 18.378906 -0.582031 15.972656 0 13.203125 0 Z M 24 -14.234375 C 24 -16.503906 23.578125 -18.519531 22.734375 -20.28125 C 21.898438 -22.039062 20.679688 -23.421875 19.078125 -24.421875 C 17.484375 -25.421875 15.523438 -25.921875 13.203125 -25.921875 L 6.359375 -25.921875 L 6.359375 -2.484375 L 13.203125 -2.484375 C 15.546875 -2.484375 17.515625 -3 19.109375 -4.03125 C 20.710938 -5.070312 21.925781 -6.476562 22.75 -8.25 C 23.582031 -10.03125 24 -12.023438 24 -14.234375 Z M 24 -14.234375 "/></g></g></g><g fill="#000000" fill-opacity="1"><g transform="translate(875.030667, 510.155418)"><g><path d="M 2.59375 0 L 2.59375 -3.921875 L 4.953125 -3.921875 L 4.953125 0 Z M 2.59375 0 "/></g></g></g><g fill="#000000" fill-opacity="1"><g transform="translate(891.949887, 510.155418)"><g/></g></g><g fill="#000000" fill-opacity="1"><g transform="translate(910.348918, 510.155418)"><g><path d="M 23.71875 -25.921875 L 13.59375 -25.921875 L 13.59375 0 L 10.796875 0 L 10.796875 -25.921875 L 0.6875 -25.921875 L 0.6875 -28.40625 L 23.71875 -28.40625 Z M 23.71875 -25.921875 "/></g></g></g><g fill="#000000" fill-opacity="1"><g transform="translate(944.106515, 510.155418)"><g><path d="M 25.953125 -28.40625 L 25.953125 0 L 23.203125 0 L 23.203125 -13.28125 L 6.359375 -13.28125 L 6.359375 0 L 3.5625 0 L 3.5625 -28.40625 L 6.359375 -28.40625 L 6.359375 -15.765625 L 23.203125 -15.765625 L 23.203125 -28.40625 Z M 25.953125 -28.40625 "/></g></g></g><g fill="#000000" fill-opacity="1"><g transform="translate(982.983558, 510.155418)"><g><path d="M 3.5625 0 L 3.5625 -28.40625 L 15.5625 -28.40625 C 16.789062 -28.40625 17.910156 -28.148438 18.921875 -27.640625 C 19.929688 -27.128906 20.816406 -26.441406 21.578125 -25.578125 C 22.335938 -24.710938 22.921875 -23.753906 23.328125 -22.703125 C 23.742188 -21.648438 23.953125 -20.578125 23.953125 -19.484375 C 23.953125 -18.117188 23.691406 -16.835938 23.171875 -15.640625 C 22.660156 -14.441406 21.929688 -13.425781 20.984375 -12.59375 C 20.035156 -11.769531 18.921875 -11.222656 17.640625 -10.953125 L 24.59375 0 L 21.4375 0 L 14.765625 -10.484375 L 6.359375 -10.484375 L 6.359375 0 Z M 6.359375 -12.953125 L 15.640625 -12.953125 C 16.753906 -12.953125 17.722656 -13.257812 18.546875 -13.875 C 19.378906 -14.488281 20.019531 -15.296875 20.46875 -16.296875 C 20.925781 -17.296875 21.15625 -18.359375 21.15625 -19.484375 C 21.15625 -20.628906 20.894531 -21.6875 20.375 -22.65625 C 19.851562 -23.632812 19.160156 -24.421875 18.296875 -25.015625 C 17.429688 -25.617188 16.46875 -25.921875 15.40625 -25.921875 L 6.359375 -25.921875 Z M 6.359375 -12.953125 "/></g></g></g><g fill="#000000" fill-opacity="1"><g transform="translate(1018.460928, 510.155418)"><g><path d="M 3.5625 0 L 3.5625 -28.40625 L 6.359375 -28.40625 L 6.359375 0 Z M 3.5625 0 "/></g></g></g><g fill="#000000" fill-opacity="1"><g transform="translate(1037.739964, 510.155418)"><g><path d="M 3.4375 -28.40625 L 13.59375 -3.484375 L 23.71875 -28.40625 L 26.640625 -28.40625 L 14.875 0 L 12.3125 0 L 0.515625 -28.40625 Z M 3.4375 -28.40625 "/></g></g></g><g fill="#000000" fill-opacity="1"><g transform="translate(1074.257235, 510.155418)"><g><path d="M 22.640625 -2.484375 L 22.640625 0 L 3.5625 0 L 3.5625 -28.40625 L 22.28125 -28.40625 L 22.28125 -25.921875 L 6.359375 -25.921875 L 6.359375 -15.6875 L 20.234375 -15.6875 L 20.234375 -13.3125 L 6.359375 -13.3125 L 6.359375 -2.484375 Z M 22.640625 -2.484375 "/></g></g></g><g fill="#000000" fill-opacity="1"><g transform="translate(1107.974778, 510.155418)"><g><path d="M 2.59375 0 L 2.59375 -3.921875 L 4.953125 -3.921875 L 4.953125 0 Z M 2.59375 0 "/></g></g></g></svg>